<?xml version="1.0" encoding="UTF-8"?>
<!DOCTYPE svg PUBLIC "-//W3C//DTD SVG 1.1//EN" "http://www.w3.org/Graphics/SVG/1.1/DTD/svg11.dtd">
<!-- Creator: CorelDRAW -->
<svg xmlns="http://www.w3.org/2000/svg" xml:space="preserve" width="1.70666in" height="1.70666in" version="1.1" style="shape-rendering:geometricPrecision; text-rendering:geometricPrecision; image-rendering:optimizeQuality; fill-rule:evenodd; clip-rule:evenodd"
viewBox="0 0 1706.66 1706.66"
 xmlns:xlink="http://www.w3.org/1999/xlink"
 xmlns:xodm="http://www.corel.com/coreldraw/odm/2003">
 <defs>
  <style type="text/css">
   <![CDATA[
    .fil0 {fill:black}
   ]]>
  </style>
 </defs>
 <g id="Layer_x0020_1">
  <metadata id="CorelCorpID_0Corel-Layer"/>
  <path class="fil0" d="M853.36 931.75c-200.25,0 -363.16,-162.92 -363.16,-363.16 0,-200.25 162.92,-363.16 363.16,-363.16 200.25,0 363.16,162.92 363.16,363.16 0,200.24 -162.91,363.16 -363.16,363.16zm0 -686.34c-178.19,0 -323.18,144.97 -323.18,323.18 0,178.21 144.98,323.16 323.18,323.16 178.19,0 323.16,-144.97 323.16,-323.16 0,-178.19 -144.97,-323.18 -323.16,-323.18z"/>
  <path class="fil0" d="M853.36 1137.18c-10.8,0 -29.7,-16.92 -42.11,-25.98 -157.34,-114.96 -152.04,-104 -348.92,-134.94 -19.62,-3.08 -18.42,-27.93 -22.43,-53.62 -29.95,-192.25 -33.86,-181.26 -151.32,-342.26 -11.71,-16.05 6.76,-32.81 22.13,-53.86 114.78,-157.11 104.13,-152.11 134.96,-348.93 3.07,-19.63 27.93,-18.42 53.62,-22.41 191.87,-29.85 181.54,-33.94 342.26,-151.31 16.05,-11.72 32.78,6.73 53.86,22.13 157.17,114.83 152.1,104.11 348.93,134.96 19.63,3.07 18.41,27.92 22.41,53.62 29.89,192.14 33.94,181.42 151.33,342.28 11.72,16.06 -6.77,32.82 -22.15,53.88 -115.01,157.42 -103.97,152.05 -134.94,348.91 -3.09,19.63 -27.94,18.42 -53.61,22.42 -192.15,29.9 -181.39,33.94 -342.29,151.33 -3.45,2.52 -7.61,3.8 -11.73,3.8zm-370.4 -198.19c210.02,32.78 198.68,28 370.4,153.43 171.82,-125.48 160.24,-120.61 370.41,-153.43 32.78,-209.99 28,-198.69 153.43,-370.4 -125.46,-171.86 -120.6,-160.13 -153.43,-370.41 -210.23,-32.78 -198.58,-28.01 -370.41,-153.42 -171.55,125.28 -160.38,120.74 -370.4,153.42 -32.81,210.47 -28,198.47 -153.43,370.41 125.45,171.85 120.6,160.17 153.43,370.39z"/>
  <path class="fil0" d="M702.87 797.77c-12.8,0 -22.53,-12.08 -19.42,-24.76l39.2 -159.9 -125.69 -106.32c-13.61,-11.52 -6.33,-33.89 11.45,-35.2l164.18 -12.14 62.28 -152.4c6.74,-16.52 30.27,-16.5 37.03,0l62.28 152.4 164.18 12.14c17.76,1.31 25.07,23.7 11.44,35.2l-125.68 106.32 39.18 159.9c4.27,17.37 -14.82,31.15 -29.94,21.76l-139.99 -86.69c-19.9,12.32 -137.89,89.69 -150.49,89.69zm150.49 -133.21c12,0 102.54,59.99 119.43,70.44l-30.49 -124.41c-1.81,-7.37 0.72,-15.12 6.51,-20.02l97.78 -82.71 -127.74 -9.44c-7.57,-0.56 -14.17,-5.35 -17.04,-12.37l-48.46 -118.57 -48.44 118.57c-2.88,7.03 -9.47,11.82 -17.04,12.37l-127.72 9.44 97.79 82.71c5.79,4.9 8.32,12.67 6.5,20.02l-30.49 124.4c16.9,-10.47 107.39,-70.44 119.41,-70.44z"/>
  <path class="fil0" d="M1034.7 1706.63c-8.69,0 -16.42,-5.66 -19.06,-13.94l-181.35 -569.45c-8,-25.15 30.14,-37.19 38.11,-12.12l166.34 522.32 80.69 -162.68c5.03,-10.13 17.46,-14.07 27.41,-8.72l159.92 86.07 -181.59 -570.3c-3.35,-10.53 2.47,-21.76 13,-25.12 10.5,-3.31 21.76,2.47 25.13,13l196.59 617.39c5.41,16.99 -12.82,32.16 -28.54,23.67l-185.23 -99.7 -93.47 188.44c-3.43,6.88 -10.4,11.14 -17.95,11.14z"/>
  <path class="fil0" d="M672.01 1706.64c-7.54,0 -14.52,-4.28 -17.92,-11.12l-93.47 -188.45 -185.25 99.69c-15.72,8.48 -33.95,-6.7 -28.54,-23.67l196.59 -617.37c7.98,-25.07 46.11,-12.99 38.11,12.12l-181.59 570.27 159.92 -86.06c9.94,-5.38 22.38,-1.4 27.4,8.72l80.69 162.69 166.35 -522.34c7.98,-25.09 46.11,-13.01 38.11,12.12l-181.35 569.46c-2.64,8.31 -10.32,13.93 -19.05,13.93z"/>
 </g>
</svg>
